# xmcd
#
# Track frame offsets: 
#        150
#        15665
#        29953
#        45457
#        59180
#        73307
#        87279
#        100594
#        115011
#        128689
#        142896
#        156917
#        170237
#        184192
#
# Disc length: 2662 seconds
#
# Revision: 4
# Processed by: cddbd v1.5.2PL0 Copyright (c) Steve Scherf et al.
# Submitted via: ExactAudioCopy v1.3
#
DISCID=c90a640e
DTITLE=Bessie Smith - Blues pioneers, Disc 10
DYEAR=2007
DGENRE=Blues
TTITLE0=Careless love blues
TTITLE1=St. Louis blues
TTITLE2=Down hearted blues
TTITLE3=Reckless blues
TTITLE4=Black mountain blues
TTITLE5=Gulf coast blues
TTITLE6=Baby won't you please come home
TTITLE7=Mean old bedbug blues
TTITLE8=Sweet misstreater
TTITLE9=Easy come, easy go blues
TTITLE10=Bleading hearted blues
TTITLE11=Mama's got the blues
TTITLE12=Woman's trouble blues
TTITLE13=Tain't nobody's business if I do
EXTD=
EXTT0=
EXTT1=
EXTT2=
EXTT3=
EXTT4=
EXTT5=
EXTT6=
EXTT7=
EXTT8=
EXTT9=
EXTT10=
EXTT11=
EXTT12=
EXTT13=
PLAYORDER=
